<svg width="34" height="34" viewBox="0 0 34 34" fill="none" xmlns="http://www.w3.org/2000/svg">
<g clip-path="url(#clip0_352_9838)">
<circle cx="17" cy="17" r="17" fill="#FF5B00"/>
<circle cx="17" cy="17" r="17" fill="white" fill-opacity="0.6"/>
<path d="M8.47023 20H6.97023V13.6367H8.39992V14.7148H8.48195C8.63039 14.3477 8.86477 14.0625 9.18508 13.8594C9.5093 13.6562 9.90383 13.5547 10.3687 13.5547C10.8101 13.5547 11.1948 13.6484 11.523 13.8359C11.855 14.0234 12.1089 14.2969 12.2847 14.6562C12.4644 15.0156 12.5523 15.4453 12.5484 15.9453V20H11.0601V16.1797C11.0601 15.75 10.9507 15.416 10.732 15.1777C10.5132 14.9395 10.2085 14.8203 9.81789 14.8203C9.55227 14.8203 9.31789 14.8789 9.11477 14.9961C8.91164 15.1094 8.75344 15.2754 8.64016 15.4941C8.52687 15.709 8.47023 15.9688 8.47023 16.2734V20ZM16.3223 20.1289C15.6895 20.1289 15.1387 19.9961 14.6699 19.7305C14.2051 19.4609 13.8477 19.0801 13.5977 18.5879C13.3516 18.0957 13.2285 17.5195 13.2285 16.8594C13.2285 16.207 13.3535 15.6328 13.6035 15.1367C13.8535 14.6367 14.2051 14.248 14.6582 13.9707C15.1152 13.6934 15.6426 13.5547 16.2402 13.5547C16.7793 13.5547 17.2676 13.6699 17.7051 13.9004C18.1465 14.1309 18.4961 14.4883 18.7539 14.9727C19.0156 15.4531 19.1465 16.0508 19.1465 16.7656V17.2344H14.7051C14.709 17.5898 14.7793 17.8984 14.916 18.1602C15.0527 18.418 15.2422 18.6152 15.4844 18.752C15.7266 18.8887 16.0098 18.957 16.334 18.957C16.6504 18.957 16.9199 18.8965 17.1426 18.7754C17.3652 18.6543 17.5254 18.4961 17.623 18.3008H19.0879C18.998 18.668 18.8281 18.9902 18.5781 19.2676C18.3281 19.541 18.0098 19.7539 17.623 19.9062C17.2402 20.0547 16.8066 20.1289 16.3223 20.1289ZM17.7168 16.2148C17.7129 15.9258 17.6504 15.668 17.5293 15.4414C17.4082 15.2148 17.2383 15.0371 17.0195 14.9082C16.8008 14.7793 16.5488 14.7148 16.2637 14.7148C15.9707 14.7148 15.709 14.7832 15.4785 14.9199C15.252 15.0527 15.0723 15.2344 14.9395 15.4648C14.8066 15.6914 14.7305 15.9414 14.7109 16.2148H17.7168ZM19.311 13.6367H20.8345L21.9595 18.1133H22.018L23.1548 13.6367H24.6665L25.8149 18.0898H25.8735L26.9868 13.6367H28.5102L26.7055 20H25.147L23.9516 15.6875H23.8696L22.6743 20H21.1157L19.311 13.6367Z" fill="white"/>
</g>
<defs>
<clipPath id="clip0_352_9838">
<rect width="34" height="34" fill="white"/>
</clipPath>
</defs>
</svg>
