<svg xmlns="http://www.w3.org/2000/svg" xmlns:xlink="http://www.w3.org/1999/xlink" width="42" height="42" viewBox="0 0 42 42"><defs><clipPath id="a"><rect width="42" height="42" transform="translate(9055 3795)" fill="#fff" stroke="#707070" stroke-width="1"/></clipPath></defs><g transform="translate(-9055 -3795)" clip-path="url(#a)"><path d="M4.093-3.056A3.5,3.5,0,0,1,3.376-.687,2.607,2.607,0,0,1,1.3.134,2.955,2.955,0,0,1,.177-.075V-1.7a1.612,1.612,0,0,0,1,.338q1.187,0,1.187-1.762V-7.7H4.093ZM11.895,0H10L9.456-1.713H6.717L6.174,0H4.295L7.1-7.7H9.155ZM9.059-3.045,8.232-5.634A3.374,3.374,0,0,1,8.1-6.327H8.06a2.938,2.938,0,0,1-.134.671l-.838,2.61ZM18.332-7.7,15.679,0H13.713L11.092-7.7h1.869l1.606,5.36a3.839,3.839,0,0,1,.156.768h.032a4.341,4.341,0,0,1,.167-.79l1.6-5.339ZM25.13,0H23.239l-.548-1.713H19.952L19.409,0H17.53l2.8-7.7H22.39ZM22.294-3.045l-.827-2.589a3.374,3.374,0,0,1-.129-.693h-.043a2.938,2.938,0,0,1-.134.671l-.838,2.61Z" transform="translate(9064 3820)" fill="#444"/></g></svg>