<svg width="64" height="64" viewBox="0 0 64 64" fill="none" xmlns="http://www.w3.org/2000/svg">
<rect width="64" height="64" rx="32" fill="#FF5B00"/>
<path d="M29.3516 21.207H32.2715V24.4824H29.3516V29.3828H25.2637V16.0273H29.3516V21.207ZM22.7246 17.4746C22.7246 20.6992 21.8063 23.3864 19.9697 25.5361C18.1331 27.6859 15.4375 29.2389 11.8828 30.1953L10.2832 26.9199C12.6361 26.3359 14.4769 25.5065 15.8057 24.4316C17.1344 23.3483 17.9469 22.1042 18.2432 20.6992H11.4512V17.4746H22.7246ZM21.5059 29.6621C23.1055 29.6621 24.5146 29.8695 25.7334 30.2842C26.9606 30.6904 27.9085 31.266 28.5771 32.0107C29.2542 32.7555 29.597 33.623 29.6055 34.6133C29.597 35.6204 29.2542 36.5007 28.5771 37.2539C27.9085 38.0072 26.9648 38.5827 25.7461 38.9805C24.5273 39.3867 23.1139 39.5898 21.5059 39.5898C19.9147 39.5898 18.5055 39.3867 17.2783 38.9805C16.0511 38.5827 15.0947 38.0072 14.4092 37.2539C13.7321 36.5007 13.3978 35.6204 13.4062 34.6133C13.3978 33.6315 13.7321 32.7682 14.4092 32.0234C15.0947 31.2702 16.0511 30.6904 17.2783 30.2842C18.5055 29.8695 19.9147 29.6621 21.5059 29.6621ZM21.5059 32.8105C20.1855 32.7936 19.1784 32.9375 18.4844 33.2422C17.7904 33.5469 17.4434 34.0039 17.4434 34.6133C17.4434 35.2227 17.7904 35.6839 18.4844 35.9971C19.1868 36.3102 20.194 36.4583 21.5059 36.4414C22.8177 36.4583 23.8206 36.3102 24.5146 35.9971C25.2171 35.6839 25.5684 35.2227 25.5684 34.6133C25.5684 34.0039 25.2214 33.5469 24.5273 33.2422C23.8333 32.9375 22.8262 32.7936 21.5059 32.8105ZM51.8223 20.75H54.7676V24.0254H51.8223V29.2812H47.7344V16.0781H51.8223V20.75ZM51.8223 39.2598H36.1309V30.2207H51.8223V39.2598ZM40.1426 36.1113H47.8105V33.3438H40.1426V36.1113ZM37.9336 25.0537C40.7012 24.9606 43.4434 24.6686 46.1602 24.1777L46.6426 27.4531C43.4264 28.0794 39.8633 28.3926 35.9531 28.3926H33.8457V17.1445H37.9336V25.0537Z" fill="white"/>
<path d="M16.1328 45.1875C16.0547 44.8086 15.8984 44.4844 15.6641 44.2148C15.4336 43.9414 15.1523 43.7344 14.8203 43.5938C14.4922 43.4531 14.1406 43.3828 13.7656 43.3828C13.2461 43.3828 12.7793 43.5137 12.3652 43.7754C11.9551 44.0371 11.6309 44.4219 11.3926 44.9297C11.1543 45.4375 11.0352 46.0469 11.0352 46.7578C11.0352 47.4688 11.1543 48.0781 11.3926 48.5859C11.6309 49.0938 11.9551 49.4785 12.3652 49.7402C12.7793 50.002 13.2461 50.1328 13.7656 50.1328C14.1406 50.1328 14.4922 50.0645 14.8203 49.9277C15.1484 49.7871 15.4277 49.582 15.6582 49.3125C15.8926 49.0391 16.0508 48.7148 16.1328 48.3398H17.1875C17.0859 48.9062 16.875 49.4004 16.5547 49.8223C16.2344 50.2402 15.832 50.5605 15.3477 50.7832C14.8672 51.0059 14.3398 51.1172 13.7656 51.1172C13.0391 51.1172 12.3926 50.9395 11.8262 50.584C11.2598 50.2285 10.8164 49.7227 10.4961 49.0664C10.1758 48.4062 10.0156 47.6367 10.0156 46.7578C10.0156 45.8789 10.1758 45.1113 10.4961 44.4551C10.8164 43.7949 11.2598 43.2871 11.8262 42.9316C12.3926 42.5762 13.0391 42.3984 13.7656 42.3984C14.3359 42.3984 14.8613 42.5098 15.3418 42.7324C15.8262 42.9551 16.2285 43.2773 16.5488 43.6992C16.873 44.1172 17.0859 44.6133 17.1875 45.1875H16.1328ZM18.6641 42.5156H23.8086V43.4531H19.7188V46.2891H23.5391V47.2148H19.7188V50.0625H23.8672V51H18.6641V42.5156ZM32.2109 51H31.2031L26.6094 44.3906H26.5273V51H25.4727V42.5156H26.4922L31.0859 49.1367H31.168V42.5156H32.2109V51ZM33.6172 42.5156H40.0156V43.4531H37.3555V51H36.2891V43.4531H33.6172V42.5156ZM41.4219 42.5156H46.5664V43.4531H42.4766V46.2891H46.2969V47.2148H42.4766V50.0625H46.625V51H41.4219V42.5156ZM48.2305 42.5156H51.1133C51.7578 42.5156 52.2969 42.627 52.7305 42.8496C53.1641 43.0684 53.4844 43.375 53.6914 43.7695C53.9023 44.1602 54.0078 44.6133 54.0078 45.1289C54.0078 45.7031 53.875 46.1973 53.6094 46.6113C53.3477 47.0254 52.9531 47.3242 52.4258 47.5078L54.3359 51H53.1055L51.3301 47.7012C51.2871 47.7051 51.2188 47.707 51.125 47.707H49.2852V51H48.2305V42.5156ZM51.0781 46.7461C51.7305 46.7461 52.207 46.6074 52.5078 46.3301C52.8125 46.0527 52.9648 45.6523 52.9648 45.1289C52.9648 44.5977 52.8125 44.1855 52.5078 43.8926C52.2031 43.5996 51.7227 43.4531 51.0664 43.4531H49.2852V46.7461H51.0781Z" fill="white"/>
</svg>
