<svg width="64" height="64" viewBox="0 0 64 64" fill="none" xmlns="http://www.w3.org/2000/svg">
<rect width="64" height="64" rx="32" fill="#5734DA"/>
<path d="M30.3672 33.1406H26.2793V16.0781H30.3672V33.1406ZM30.9258 39.1836H14.2949V31.4395H18.4082V35.9336H30.9258V39.1836ZM19.9824 19.5566C19.9655 21.1478 20.359 22.5654 21.1631 23.8096C21.9671 25.0452 23.3171 25.9466 25.2129 26.5137L23.1562 29.6875C20.7272 28.9512 18.9668 27.5208 17.875 25.3965C17.3249 26.5137 16.5928 27.4743 15.6787 28.2783C14.7646 29.0824 13.6517 29.6875 12.3398 30.0938L10.2578 26.8691C12.2044 26.2682 13.6009 25.3118 14.4473 24C15.2936 22.6797 15.7253 21.1986 15.7422 19.5566V17.3477H19.9824V19.5566ZM54.4629 31.668H33.0332V28.4688H41.666V26.2344H45.7285V28.4688H54.4629V31.668ZM45.7285 18.2363H52.457V21.3594H46.1348C46.431 22.0957 47.1758 22.7389 48.3691 23.2891C49.571 23.8392 51.3568 24.1947 53.7266 24.3555L52.4316 27.4531C50.2734 27.3092 48.4665 26.9538 47.0107 26.3867C45.5635 25.8112 44.459 25.0664 43.6973 24.1523C42.9355 25.0664 41.8311 25.8112 40.3838 26.3867C38.9365 26.9538 37.1296 27.3092 34.9629 27.4531L33.6934 24.3555C36.0378 24.1947 37.8024 23.8392 38.9873 23.2891C40.1722 22.7389 40.9212 22.0957 41.2344 21.3594H34.9883V18.2363H41.666V16.1543H45.7285V18.2363ZM51.9746 39.1836H35.4961V32.6836H39.584V35.9336H51.9746V39.1836Z" fill="white"/>
<path d="M16.1328 45.1875C16.0547 44.8086 15.8984 44.4844 15.6641 44.2148C15.4336 43.9414 15.1523 43.7344 14.8203 43.5938C14.4922 43.4531 14.1406 43.3828 13.7656 43.3828C13.2461 43.3828 12.7793 43.5137 12.3652 43.7754C11.9551 44.0371 11.6309 44.4219 11.3926 44.9297C11.1543 45.4375 11.0352 46.0469 11.0352 46.7578C11.0352 47.4688 11.1543 48.0781 11.3926 48.5859C11.6309 49.0938 11.9551 49.4785 12.3652 49.7402C12.7793 50.002 13.2461 50.1328 13.7656 50.1328C14.1406 50.1328 14.4922 50.0645 14.8203 49.9277C15.1484 49.7871 15.4277 49.582 15.6582 49.3125C15.8926 49.0391 16.0508 48.7148 16.1328 48.3398H17.1875C17.0859 48.9062 16.875 49.4004 16.5547 49.8223C16.2344 50.2402 15.832 50.5605 15.3477 50.7832C14.8672 51.0059 14.3398 51.1172 13.7656 51.1172C13.0391 51.1172 12.3926 50.9395 11.8262 50.584C11.2598 50.2285 10.8164 49.7227 10.4961 49.0664C10.1758 48.4062 10.0156 47.6367 10.0156 46.7578C10.0156 45.8789 10.1758 45.1113 10.4961 44.4551C10.8164 43.7949 11.2598 43.2871 11.8262 42.9316C12.3926 42.5762 13.0391 42.3984 13.7656 42.3984C14.3359 42.3984 14.8613 42.5098 15.3418 42.7324C15.8262 42.9551 16.2285 43.2773 16.5488 43.6992C16.873 44.1172 17.0859 44.6133 17.1875 45.1875H16.1328ZM18.6641 42.5156H23.8086V43.4531H19.7188V46.2891H23.5391V47.2148H19.7188V50.0625H23.8672V51H18.6641V42.5156ZM32.2109 51H31.2031L26.6094 44.3906H26.5273V51H25.4727V42.5156H26.4922L31.0859 49.1367H31.168V42.5156H32.2109V51ZM33.6172 42.5156H40.0156V43.4531H37.3555V51H36.2891V43.4531H33.6172V42.5156ZM41.4219 42.5156H46.5664V43.4531H42.4766V46.2891H46.2969V47.2148H42.4766V50.0625H46.625V51H41.4219V42.5156ZM48.2305 42.5156H51.1133C51.7578 42.5156 52.2969 42.627 52.7305 42.8496C53.1641 43.0684 53.4844 43.375 53.6914 43.7695C53.9023 44.1602 54.0078 44.6133 54.0078 45.1289C54.0078 45.7031 53.875 46.1973 53.6094 46.6113C53.3477 47.0254 52.9531 47.3242 52.4258 47.5078L54.3359 51H53.1055L51.3301 47.7012C51.2871 47.7051 51.2188 47.707 51.125 47.707H49.2852V51H48.2305V42.5156ZM51.0781 46.7461C51.7305 46.7461 52.207 46.6074 52.5078 46.3301C52.8125 46.0527 52.9648 45.6523 52.9648 45.1289C52.9648 44.5977 52.8125 44.1855 52.5078 43.8926C52.2031 43.5996 51.7227 43.4531 51.0664 43.4531H49.2852V46.7461H51.0781Z" fill="white"/>
</svg>
