<svg width="64" height="64" viewBox="0 0 64 64" fill="none" xmlns="http://www.w3.org/2000/svg">
<rect width="64" height="64" rx="32" fill="#FF5B00"/>
<path d="M14.4605 39H11.4605V26.2734H14.3198V28.4297H14.4839C14.7808 27.6953 15.2495 27.125 15.8902 26.7188C16.5386 26.3125 17.3277 26.1094 18.2573 26.1094C19.1402 26.1094 19.9097 26.2969 20.5659 26.6719C21.23 27.0469 21.7378 27.5938 22.0894 28.3125C22.4487 29.0312 22.6245 29.8906 22.6167 30.8906V39H19.6402V31.3594C19.6402 30.5 19.4214 29.832 18.9839 29.3555C18.5464 28.8789 17.937 28.6406 17.1558 28.6406C16.6245 28.6406 16.1558 28.7578 15.7495 28.9922C15.3433 29.2188 15.0269 29.5508 14.8003 29.9883C14.5737 30.418 14.4605 30.9375 14.4605 31.5469V39ZM30.6445 39.2578C29.3789 39.2578 28.2773 38.9922 27.3398 38.4609C26.4102 37.9219 25.6953 37.1602 25.1953 36.1758C24.7031 35.1914 24.457 34.0391 24.457 32.7188C24.457 31.4141 24.707 30.2656 25.207 29.2734C25.707 28.2734 26.4102 27.4961 27.3164 26.9414C28.2305 26.3867 29.2852 26.1094 30.4805 26.1094C31.5586 26.1094 32.5352 26.3398 33.4102 26.8008C34.293 27.2617 34.9922 27.9766 35.5078 28.9453C36.0312 29.9062 36.293 31.1016 36.293 32.5312V33.4688H27.4102C27.418 34.1797 27.5586 34.7969 27.832 35.3203C28.1055 35.8359 28.4844 36.2305 28.9688 36.5039C29.4531 36.7773 30.0195 36.9141 30.668 36.9141C31.3008 36.9141 31.8398 36.793 32.2852 36.5508C32.7305 36.3086 33.0508 35.9922 33.2461 35.6016H36.1758C35.9961 36.3359 35.6562 36.9805 35.1562 37.5352C34.6562 38.082 34.0195 38.5078 33.2461 38.8125C32.4805 39.1094 31.6133 39.2578 30.6445 39.2578ZM33.4336 31.4297C33.4258 30.8516 33.3008 30.3359 33.0586 29.8828C32.8164 29.4297 32.4766 29.0742 32.0391 28.8164C31.6016 28.5586 31.0977 28.4297 30.5273 28.4297C29.9414 28.4297 29.418 28.5664 28.957 28.8398C28.5039 29.1055 28.1445 29.4688 27.8789 29.9297C27.6133 30.3828 27.4609 30.8828 27.4219 31.4297H33.4336ZM37.102 26.2734H40.1489L42.3989 35.2266H42.5161L44.7895 26.2734H47.813L50.1098 35.1797H50.227L52.4536 26.2734H55.5005L51.8911 39H48.7739L46.3833 30.375H46.2192L43.8286 39H40.7114L37.102 26.2734Z" fill="white"/>
</svg>
